<svg fill="#C8102E" viewBox="0 0 512 512" xmlns="http://www.w3.org/2000/svg">
  <g><path d="M455.857,56.144c-74.86-74.859-196.662-74.859-271.521,0C17.087,223.392-9.275,272.783,2.398,298.264c8.318,18.153,32.898,19.077,63.015,17.249l-36.537,97.203c-6.838,18.194-2.549,38.035,11.195,51.778c13.744,13.743,33.583,18.035,51.778,11.195L197.2,436.089c-2.507,34.987-3.349,64.4,16.534,73.511c3.325,1.524,7.055,2.4,11.403,2.4c28.973-0.002,85.294-38.91,230.72-184.335C530.715,252.806,530.715,131.003,455.857,56.144z M441.431,313.239C369.446,385.224,316.37,433.95,279.174,462.2c-41.868,31.797-54.167,30.124-56.94,28.854c-2.851-1.307-4.901-7.374-5.626-16.646c-0.922-11.81,0.244-27.541,1.479-44.196c0.209-2.826,0.421-5.681,0.625-8.557c0.247-3.466-1.288-6.82-4.073-8.899c-1.788-1.335-3.934-2.026-6.102-2.026c-1.209,0-2.424,0.214-3.589,0.652l-120.277,45.21c-10.765,4.047-22.043,1.608-30.174-6.524c-8.131-8.131-10.57-19.411-6.524-30.174l42.126-112.072c1.224-3.258,0.703-6.915-1.382-9.702c-2.085-2.787-5.444-4.321-8.919-4.06c-14.536,1.076-31.012,2.295-42.857,1.278c-8.892-0.763-14.721-2.793-15.994-5.572c-1.27-2.772-2.944-15.072,28.855-56.941c28.25-37.196,76.975-90.271,148.96-162.255c66.904-66.905,175.764-66.905,242.669,0C508.335,137.474,508.335,246.335,441.431,313.239z"/></g>
  <g><path d="M320.096,28.297c-90.213,0-163.608,73.394-163.608,163.608s73.395,163.608,163.608,163.608s163.608-73.395,163.608-163.608S410.31,28.297,320.096,28.297z M320.096,48.698c36.338,0,69.551,13.613,94.828,35.995c-26.187,23.225-59.477,35.903-94.828,35.903c-35.351,0-68.641-12.679-94.828-35.903C250.544,62.309,283.758,48.698,320.096,48.698z M320.096,335.111c-36.338,0.001-69.552-13.611-94.829-35.995c26.187-23.225,59.478-35.903,94.829-35.903c35.351,0,68.641,12.679,94.828,35.903C389.647,321.499,356.433,335.111,320.096,335.111z M429.215,284.535c-30.034-26.977-68.377-41.722-109.12-41.722c-40.743,0-79.086,14.745-109.12,41.722c-21.246-24.99-34.087-57.336-34.087-92.631c0.001-35.293,12.842-67.64,34.088-92.63c30.034,26.977,68.377,41.722,109.12,41.722s79.086-14.745,109.119-41.722c21.246,24.99,34.087,57.336,34.087,92.63C463.302,227.198,450.46,259.545,429.215,284.535z"/></g>
</svg>
